HIERARCHY
ROOT joint_0
{
	OFFSET 0.000000 0.000000 0.000000
	CHANNELS 6 Xposition Yposition Zposition Zrotation Yrotation Xrotation 
	JOINT joint_1
	{
		OFFSET 4.520508 -1.939880 86.268921
		CHANNELS 3 Zrotation Yrotation Xrotation
		JOINT joint_2
		{
			OFFSET -4.459717 -0.438538 78.934082
			CHANNELS 3 Zrotation Yrotation Xrotation
			JOINT joint_3
			{
				OFFSET -5.197754 -0.781128 78.796997
				CHANNELS 3 Zrotation Yrotation Xrotation
				JOINT joint_4
				{
					OFFSET 2.952026 -3.710571 109.812988
					CHANNELS 3 Zrotation Yrotation Xrotation
					JOINT joint_5
					{
						OFFSET 24.716797 -5.488037 87.903931
						CHANNELS 3 Zrotation Yrotation Xrotation
						End Site
						{
							OFFSET 0.000000 0.000000 0.000000
						}
					}
				}
				JOINT joint_6
				{
					OFFSET -3.154419 -25.484680 60.934937
					CHANNELS 3 Zrotation Yrotation Xrotation
					JOINT joint_7
					{
						OFFSET -28.997192 -144.472229 -32.671997
						CHANNELS 3 Zrotation Yrotation Xrotation
						JOINT joint_8
						{
							OFFSET 19.867676 -18.614380 -249.897949
							CHANNELS 3 Zrotation Yrotation Xrotation
							JOINT joint_9
							{
								OFFSET 5.281982 -13.816650 -264.993042
								CHANNELS 3 Zrotation Yrotation Xrotation
								End Site
								{
									OFFSET 0.000000 0.000000 0.000000
								}
							}
						}
					}
				}
				JOINT joint_10
				{
					OFFSET 6.494995 21.336792 62.257935
					CHANNELS 3 Zrotation Yrotation Xrotation
					JOINT joint_11
					{
						OFFSET 31.106567 145.200745 -27.007935
						CHANNELS 3 Zrotation Yrotation Xrotation
						JOINT joint_12
						{
							OFFSET 29.119141 24.684326 -248.460083
							CHANNELS 3 Zrotation Yrotation Xrotation
							JOINT joint_13
							{
								OFFSET 21.220093 31.248413 -262.703979
								CHANNELS 3 Zrotation Yrotation Xrotation
								End Site
								{
									OFFSET 0.000000 0.000000 0.000000
								}
							}
						}
					}
				}
			}
		}
	}
	JOINT joint_14
	{
		OFFSET -15.458496 -88.861694 -109.593018
		CHANNELS 3 Zrotation Yrotation Xrotation
		JOINT joint_15
		{
			OFFSET -6.193359 6.837952 -506.710999
			CHANNELS 3 Zrotation Yrotation Xrotation
			JOINT joint_16
			{
				OFFSET -35.096680 13.289795 -435.677025
				CHANNELS 3 Zrotation Yrotation Xrotation
				JOINT joint_17
				{
					OFFSET 158.491211 -33.916565 -71.771002
					CHANNELS 3 Zrotation Yrotation Xrotation
					End Site
					{
						OFFSET 0.000000 0.000000 0.000000
					}
				}
			}
		}
	}
	JOINT joint_18
	{
		OFFSET 23.116943 86.574158 -110.082031
		CHANNELS 3 Zrotation Yrotation Xrotation
		JOINT joint_19
		{
			OFFSET -6.125854 -0.283569 -506.757019
			CHANNELS 3 Zrotation Yrotation Xrotation
			JOINT joint_20
			{
				OFFSET -63.240234 11.589966 -432.537994
				CHANNELS 3 Zrotation Yrotation Xrotation
				JOINT joint_21
				{
					OFFSET 156.074219 -41.487305 -73.077999
					CHANNELS 3 Zrotation Yrotation Xrotation
					End Site
					{
						OFFSET 0.000000 0.000000 0.000000
					}
				}
			}
		}
	}
}
MOTION
Frames: 9
Frame Time: 0.016667
-1104.353516 857.097351 1140.086060 -4.009614 -0.336686 0.039169 -0.392597 -0.399073 -0.171680 -0.379493 0.084013 0.019066 -0.382573 -0.056803 -0.006972 -0.223602 -0.374049 0.716791 0.000000 0.000000 0.000000 -0.142570 0.635865 -0.455657 0.189760 0.226370 1.212061 -0.084711 1.152915 -1.349967 0.000000 0.000000 0.000000 0.359629 0.554288 0.674472 -0.120576 0.858508 -1.159698 0.257897 0.409473 2.448194 0.000000 0.000000 0.000000 -0.271205 0.721541 -0.937267 -0.295744 -0.178284 -0.086929 -0.282386 0.363671 -0.049975 0.000000 0.000000 0.000000 0.298681 -0.110430 -0.014722 0.293577 0.375237 0.379264 0.318890 -0.184295 0.100330 0.000000 0.000000 0.000000 
-1104.478027 857.186096 1140.088989 -4.004003 -0.343911 0.038093 -0.390685 -0.384263 -0.168322 -0.377937 0.082780 0.017415 -0.380758 -0.055367 -0.005092 -0.226583 -0.381263 0.725881 0.000000 0.000000 0.000000 -0.154692 0.628253 -0.446505 0.189225 0.220364 1.200180 -0.084647 1.151583 -1.350382 0.000000 0.000000 0.000000 0.350911 0.540302 0.685477 -0.121800 0.849008 -1.163114 0.257513 0.409360 2.444051 0.000000 0.000000 0.000000 -0.272177 0.714399 -0.935237 -0.296209 -0.161322 -0.097582 -0.284183 0.361738 -0.051201 0.000000 0.000000 0.000000 0.297221 -0.108704 -0.015585 0.292176 0.371486 0.373832 0.316861 -0.177395 0.101214 0.000000 0.000000 0.000000 
-1104.591919 857.272278 1140.093018 -4.001384 -0.350875 0.037399 -0.388145 -0.372687 -0.166646 -0.375651 0.080663 0.015754 -0.378286 -0.054413 -0.004385 -0.229585 -0.385965 0.735605 0.000000 0.000000 0.000000 -0.164487 0.623024 -0.440121 0.189496 0.214866 1.196582 -0.084793 1.153900 -1.352213 0.000000 0.000000 0.000000 0.342453 0.528826 0.694370 -0.122360 0.840650 -1.161916 0.257041 0.409153 2.439061 0.000000 0.000000 0.000000 -0.271533 0.708125 -0.933644 -0.295112 -0.146958 -0.108410 -0.284376 0.362746 -0.051071 0.000000 0.000000 0.000000 0.296750 -0.104325 -0.016011 0.291793 0.363425 0.366921 0.315675 -0.168731 0.102961 0.000000 0.000000 0.000000 
-1104.679077 857.353577 1140.098022 -4.005272 -0.356488 0.037466 -0.385006 -0.371624 -0.169947 -0.372273 0.080258 0.016889 -0.374993 -0.054015 -0.004656 -0.232017 -0.386688 0.744169 0.000000 0.000000 0.000000 -0.167404 0.622906 -0.441633 0.191614 0.210605 1.210050 -0.085415 1.163653 -1.360061 0.000000 0.000000 0.000000 0.336345 0.522683 0.698093 -0.121719 0.834546 -1.152520 0.256308 0.408120 2.432229 0.000000 0.000000 0.000000 -0.267722 0.703393 -0.933111 -0.290978 -0.138898 -0.118918 -0.281363 0.369204 -0.048325 0.000000 0.000000 0.000000 0.298396 -0.095687 -0.015778 0.293578 0.347656 0.357271 0.316322 -0.157932 0.106135 0.000000 0.000000 0.000000 
-1104.754761 857.431213 1140.104004 -4.011460 -0.361422 0.037942 -0.381292 -0.376032 -0.175765 -0.368128 0.081380 0.018337 -0.371008 -0.054480 -0.005381 -0.234684 -0.385426 0.754012 0.000000 0.000000 0.000000 -0.168723 0.625209 -0.446251 0.194572 0.206640 1.231831 -0.086259 1.177292 -1.369471 0.000000 0.000000 0.000000 0.329692 0.519003 0.699639 -0.120440 0.829721 -1.138743 0.255397 0.406262 2.424521 0.000000 0.000000 0.000000 -0.262573 0.699473 -0.933011 -0.285570 -0.134037 -0.129340 -0.276979 0.379012 -0.044241 0.000000 0.000000 0.000000 0.301034 -0.085063 -0.014945 0.296392 0.328015 0.345648 0.317747 -0.145619 0.110074 0.000000 0.000000 0.000000 
-1104.834473 857.509460 1140.108032 -4.017899 -0.367738 0.038075 -0.376544 -0.377548 -0.181640 -0.362979 0.080437 0.019640 -0.365949 -0.055276 -0.005446 -0.236329 -0.383002 0.760444 0.000000 0.000000 0.000000 -0.173431 0.628528 -0.450997 0.196622 0.203828 1.250002 -0.086610 1.182981 -1.373437 0.000000 0.000000 0.000000 0.320624 0.515361 0.700642 -0.119501 0.825745 -1.127513 0.255311 0.406679 2.423007 0.000000 0.000000 0.000000 -0.258155 0.697419 -0.933084 -0.280935 -0.129191 -0.138937 -0.273320 0.385328 -0.041233 0.000000 0.000000 0.000000 0.303514 -0.073236 -0.014751 0.299013 0.308689 0.336157 0.319282 -0.134181 0.113834 0.000000 0.000000 0.000000 
-1104.924561 857.592163 1140.110962 -4.022296 -0.375433 0.037995 -0.370517 -0.376206 -0.187268 -0.356503 0.079849 0.022231 -0.359752 -0.054158 -0.007342 -0.237714 -0.385364 0.764882 0.000000 0.000000 0.000000 -0.185463 0.630272 -0.451453 0.196605 0.201445 1.256536 -0.086020 1.173794 -1.365705 0.000000 0.000000 0.000000 0.307133 0.508749 0.702492 -0.119611 0.820963 -1.122594 0.256891 0.411910 2.433712 0.000000 0.000000 0.000000 -0.256020 0.697561 -0.933643 -0.278638 -0.124390 -0.147481 -0.271903 0.386337 -0.040374 0.000000 0.000000 0.000000 0.305065 -0.061491 -0.016418 0.300636 0.291120 0.330523 0.320369 -0.123357 0.117220 0.000000 0.000000 0.000000 
-1105.018433 857.676514 1140.113037 -4.027005 -0.384318 0.037527 -0.363155 -0.373057 -0.192921 -0.348640 0.077886 0.026001 -0.352317 -0.051957 -0.010686 -0.238803 -0.389330 0.767898 0.000000 0.000000 0.000000 -0.202155 0.632349 -0.450563 0.195699 0.199647 1.258893 -0.084944 1.156710 -1.352867 0.000000 0.000000 0.000000 0.290804 0.501231 0.704418 -0.120109 0.816276 -1.120123 0.259376 0.420035 2.450652 0.000000 0.000000 0.000000 -0.254637 0.699335 -0.934444 -0.277136 -0.119648 -0.154964 -0.271202 0.384615 -0.040425 0.000000 0.000000 0.000000 0.306422 -0.048847 -0.018671 0.302035 0.273962 0.326819 0.321502 -0.112828 0.120549 0.000000 0.000000 0.000000 
-1105.110596 857.758545 1140.115967 -4.032002 -0.394211 0.037020 -0.356924 -0.370016 -0.199286 -0.341901 0.074462 0.029357 -0.345889 -0.049949 -0.012860 -0.239846 -0.391455 0.771158 0.000000 0.000000 0.000000 -0.214293 0.635882 -0.452365 0.195330 0.198960 1.264805 -0.084096 1.142895 -1.344010 0.000000 0.000000 0.000000 0.278699 0.496075 0.706449 -0.119998 0.812613 -1.114468 0.260994 0.425960 2.460863 0.000000 0.000000 0.000000 -0.253176 0.701107 -0.935964 -0.275557 -0.112577 -0.160484 -0.270342 0.382710 -0.040443 0.000000 0.000000 0.000000 0.308087 -0.035874 -0.020354 0.303759 0.258793 0.322247 0.322774 -0.102817 0.123804 0.000000 0.000000 0.000000 
